<svg xmlns="http://www.w3.org/2000/svg" viewBox="0 0 1400 520" preserveAspectRatio="xMidYMid slice">
<defs>
 <linearGradient id="sky" x1="0" y1="0" x2="0" y2="1"><stop stop-color="#22c9ff"/><stop offset=".56" stop-color="#79eaff"/><stop offset="1" stop-color="#eaffff"/></linearGradient>
 <linearGradient id="sea" x1="0" y1="0" x2="0" y2="1"><stop stop-color="#36d6ec"/><stop offset="1" stop-color="#d9ffff"/></linearGradient>
 <radialGradient id="orb"><stop stop-color="#ffffff" stop-opacity=".8"/><stop offset=".4" stop-color="#8ff7ff" stop-opacity=".65"/><stop offset="1" stop-color="#0aaae6" stop-opacity=".95"/></radialGradient>
 <filter id="blur"><feGaussianBlur stdDeviation="5"/></filter>
</defs>
<rect width="1400" height="520" fill="url(#sky)"/>
<g opacity=".88" fill="#fff" filter="url(#blur)">
  <ellipse cx="180" cy="108" rx="120" ry="34"/><ellipse cx="255" cy="90" rx="100" ry="45"/><ellipse cx="328" cy="112" rx="115" ry="32"/>
  <ellipse cx="955" cy="105" rx="155" ry="36"/><ellipse cx="1060" cy="88" rx="110" ry="44"/><ellipse cx="1160" cy="110" rx="140" ry="34"/>
</g>
<g fill="#fff" opacity=".8">
  <circle cx="205" cy="78" r="28"/><circle cx="247" cy="73" r="36"/><circle cx="285" cy="85" r="25"/>
  <circle cx="1025" cy="76" r="31"/><circle cx="1065" cy="66" r="43"/><circle cx="1115" cy="84" r="27"/>
</g>
<rect y="290" width="1400" height="230" fill="url(#sea)"/>
<g opacity=".45" fill="#fff"><path d="M0 326 C180 286 290 352 460 314 S780 298 950 325 1190 290 1400 322 V350 H0Z"/><path d="M0 390 C160 350 290 412 480 381 S805 365 1010 392 1210 360 1400 390 V410 H0Z"/></g>
<g fill="#72d9ff" stroke="#fff" stroke-width="2" opacity=".85">
  <rect x="420" y="218" width="76" height="100" rx="5"/><rect x="504" y="188" width="62" height="130" rx="5"/>
  <rect x="574" y="236" width="66" height="82" rx="5"/><rect x="650" y="174" width="82" height="144" rx="5"/>
  <rect x="742" y="228" width="58" height="90" rx="5"/><rect x="810" y="198" width="74" height="120" rx="5"/>
  <rect x="895" y="246" width="50" height="72" rx="5"/>
</g>
<g fill="#dffcff" opacity=".6"><rect x="435" y="242" width="45" height="7"/><rect x="519" y="212" width="31" height="7"/><rect x="665" y="200" width="52" height="7"/><rect x="824" y="220" width="40" height="7"/></g>
<g>
 <circle cx="1155" cy="190" r="86" fill="url(#orb)" stroke="#fff" stroke-width="5"/>
 <ellipse cx="1155" cy="190" rx="112" ry="34" fill="none" stroke="#fff" stroke-width="6" transform="rotate(-13 1155 190)" opacity=".88"/>
 <path d="M1120 125 1135 240 1172 156Z" fill="#6fe5ff" stroke="#fff" stroke-width="1.5" opacity=".75"/>
 <circle cx="1125" cy="157" r="18" fill="#fff" opacity=".42"/>
</g>
<g fill="#fff" opacity=".75"><circle cx="118" cy="235" r="11"/><circle cx="1250" cy="86" r="12"/><circle cx="1290" cy="126" r="20"/><circle cx="1090" cy="88" r="9"/></g>
<path d="M80 430 Q280 380 460 430 T850 430 T1220 435 T1400 425" fill="none" stroke="#fff" stroke-width="5" opacity=".8"/>
</svg>
